# xmcd
#
# Track frame offsets:
#	150
#	11730
#	24395
#	35432
#	52142
#	66447
#	78157
#	87935
#	101412
#	113040
#	126020
#
# Disc length: 1862 seconds
#
# Revision: 0
# Processed by: cddbd v1.5.1PL0 Copyright (c) Steve Scherf et al.
# Submitted via: EasyCDDAExtractor 8.1.0.1
#
DISCID=8707440b
DTITLE=Billy Walker - Country Sounds
DYEAR=1995
DGENRE=Country
TTITLE0=Jesse
TTITLE1=He Sang The Songs About El Passo
TTITLE2=Charlie's Shoes
TTITLE3=Touch Of My Woman
TTITLE4=Don't Ever Leave Me In Texas
TTITLE5=Instead Of Giving Up (I'm Giving In)
TTITLE6=Love Boat
TTITLE7=Cross The Brazos At Wako
TTITLE8=Anything Your Heart Desires
TTITLE9=Cool In The Daylight (Fire In The Dark)
TTITLE10=Funny How Time Slips Away
EXTD=
EXTT0=
EXTT1=
EXTT2=
EXTT3=
EXTT4=
EXTT5=
EXTT6=
EXTT7=
EXTT8=
EXTT9=
EXTT10=
PLAYORDER=
